<?xml version="1.0" encoding="utf-8"?>
<!-- Generator: Adobe Illustrator 23.0.5, SVG Export Plug-In . SVG Version: 6.00 Build 0)  -->
<svg version="1.1" xmlns="http://www.w3.org/2000/svg" xmlns:xlink="http://www.w3.org/1999/xlink" x="0px" y="0px"
	 viewBox="0 0 492 492" style="enable-background:new 0 0 492 492;" xml:space="preserve">
<style type="text/css">
	.st0{fill-rule:evenodd;clip-rule:evenodd;}
</style>
<g id="Layer_1">
	<rect x="172" y="236.1" class="st0" width="24.3" height="24.3"/>
	<rect x="234.1" y="236.1" class="st0" width="24.3" height="24.3"/>
	<rect x="296.2" y="236.1" class="st0" width="24.3" height="24.3"/>
	<rect x="358.3" y="236.1" class="st0" width="24.3" height="24.3"/>
	<rect x="110" y="294.6" class="st0" width="24.3" height="24.3"/>
	<rect x="172" y="294.6" class="st0" width="24.3" height="24.3"/>
	<rect x="234.1" y="294.6" class="st0" width="24.3" height="24.3"/>
	<rect x="296.2" y="294.6" class="st0" width="24.3" height="24.3"/>
	<rect x="110" y="353.1" class="st0" width="24.3" height="24.3"/>
	<rect x="172" y="353.1" class="st0" width="24.3" height="24.3"/>
	<rect x="234.1" y="353.1" class="st0" width="24.3" height="24.3"/>
	<rect x="296.2" y="353.1" class="st0" width="24.3" height="24.3"/>
	<rect x="358.3" y="353.1" class="st0" width="24.3" height="24.3"/>
	<path d="M108.9,430.6c-12.3,0-23.4-5-31.5-13.1c-8.1-8.1-13.1-19.2-13.1-31.4V134c0-12.3,5-23.4,13.1-31.5
		c8.1-8.1,19.2-13.1,31.5-13.1h274.7c12.3,0,23.4,5,31.5,13.1c8.1,8.1,13.1,19.2,13.1,31.5v252.3c0,12.1-5.3,23.3-13.7,31.4
		c-8.4,8.2-19.9,13.3-32.1,13.3v0L108.9,430.6L108.9,430.6z M85.6,409.4c6,6,14.3,9.7,23.3,9.8l273.5,0.4v0c9.1,0,17.7-3.9,24.1-10
		c6.2-6,10.1-14.3,10.1-23.2V134c0-9.1-3.7-17.3-9.7-23.3c-6-6-14.2-9.7-23.3-9.7H108.9c-9.1,0-17.3,3.7-23.3,9.7
		c-6,6-9.7,14.2-9.7,23.3v252C75.9,395.1,79.6,403.4,85.6,409.4z"/>
	<path d="M70.2,194.3c-3.2,0-5.8-2.6-5.8-5.8c0-3.2,2.6-5.8,5.8-5.8h352.2c3.2,0,5.8,2.6,5.8,5.8c0,3.2-2.6,5.8-5.8,5.8H70.2z"/>
	<path d="M146.1,68.2c0-3.2,2.6-5.8,5.8-5.8c3.2,0,5.8,2.6,5.8,5.8v54.2c0,3.2-2.6,5.8-5.8,5.8c-3.2,0-5.8-2.6-5.8-5.8V68.2z"/>
	<path d="M334.9,68.2c0-3.2,2.6-5.8,5.8-5.8c3.2,0,5.8,2.6,5.8,5.8v54.2c0,3.2-2.6,5.8-5.8,5.8c-3.2,0-5.8-2.6-5.8-5.8V68.2z"/>
	<path d="M341.7,308.3c-0.9-3.1,0.9-6.2,4-7.1c3.1-0.9,6.2,0.9,7.1,4l1.5,5.2l32.7-21.2c2.7-1.7,6.2-1,7.9,1.7
		c1.7,2.7,1,6.2-1.7,7.9l-39,25.3c-0.5,0.4-1.2,0.7-1.8,0.9c-3.1,0.9-6.2-0.9-7.1-4L341.7,308.3z"/>
</g>
<g id="Master_Layer_2">
</g>
</svg>
