<?xml version="1.0" encoding="utf-8"?>
<!-- Generator: Adobe Illustrator 23.0.5, SVG Export Plug-In . SVG Version: 6.00 Build 0)  -->
<svg version="1.1" xmlns="http://www.w3.org/2000/svg" xmlns:xlink="http://www.w3.org/1999/xlink" x="0px" y="0px"
	 viewBox="0 0 492 492" style="enable-background:new 0 0 492 492;" xml:space="preserve">
<g id="Layer_1">
	<path d="M240.8,427.2c-4.5-9.9-11.5-24.7-19.9-42.3c-32.5-68-85.1-178-85.1-212.1c0-30.5,12.4-58.1,32.3-78.1
		c20-20,47.6-32.3,78.1-32.3c30.5,0,58.1,12.4,78.1,32.3c20,20,32.3,47.6,32.3,78.1c0,34.1-52.6,144.1-85.1,212.1
		c-8.5,17.9-15.7,32.8-20.1,42.7l-5.2-2.3l5.3,2.4c-1.3,2.9-4.7,4.2-7.6,2.9C242.4,429.9,241.3,428.7,240.8,427.2L240.8,427.2z
		 M231.3,380c5.8,12.1,10.9,22.9,15,31.6c4.1-8.7,9.2-19.5,15-31.6c32-67,83.9-175.5,83.9-207.2c0-27.3-11.1-52-29-69.9
		c-17.9-17.9-42.6-29-69.9-29c-27.3,0-52,11.1-69.9,29c-17.9,17.9-29,42.6-29,69.9C147.4,204.5,199.2,312.9,231.3,380z"/>
	<path d="M246.3,114.1c16.2,0,30.9,6.6,41.5,17.2c10.6,10.6,17.2,25.3,17.2,41.5c0,16.2-6.6,30.9-17.2,41.5s-25.3,17.2-41.5,17.2
		c-16.2,0-30.9-6.6-41.5-17.2c-10.6-10.6-17.2-25.3-17.2-41.5c0-16.2,6.6-30.9,17.2-41.5C215.4,120.7,230.1,114.1,246.3,114.1
		L246.3,114.1z M279.6,139.5c-8.5-8.5-20.3-13.8-33.4-13.8c-13,0-24.8,5.3-33.4,13.8c-8.5,8.5-13.8,20.3-13.8,33.4
		c0,13,5.3,24.8,13.8,33.4c8.5,8.5,20.3,13.8,33.4,13.8c13,0,24.8-5.3,33.4-13.8c8.5-8.5,13.8-20.3,13.8-33.4
		C293.4,159.8,288.2,148,279.6,139.5z"/>
</g>
<g id="Master_Layer_3">
</g>
</svg>
